<svg xmlns="http://www.w3.org/2000/svg" viewBox="0 0 512 512">
  <defs>
    <linearGradient id="emeraldGradient" x1="0%" y1="0%" x2="100%" y2="100%">
      <stop offset="0%" style="stop-color:#10b981;stop-opacity:1" />
      <stop offset="100%" style="stop-color:#059669;stop-opacity:1" />
    </linearGradient>
  </defs>

  <!-- Background -->
  <rect width="512" height="512" fill="#0f172a" rx="64"/>

  <!-- Crescent Moon -->
  <path d="M 256 100 A 100 100 0 1 0 256 412 A 80 80 0 1 1 256 100 Z"
        fill="url(#emeraldGradient)"
        transform="translate(0, -20)"/>

  <!-- Star -->
  <path d="M 356 190 L 370 220 L 402 220 L 376 238 L 388 268 L 356 248 L 324 268 L 336 238 L 310 220 L 342 220 Z"
        fill="url(#emeraldGradient)"/>

  <!-- Simple Prayer Beads -->
  <circle cx="256" cy="380" r="8" fill="#10b981"/>
  <circle cx="236" cy="385" r="8" fill="#10b981"/>
  <circle cx="276" cy="385" r="8" fill="#10b981"/>
  <circle cx="220" cy="395" r="8" fill="#10b981"/>
  <circle cx="292" cy="395" r="8" fill="#10b981"/>
</svg>
